<svg width="16" height="12" viewBox="0 0 16 12" fill="none" xmlns="http://www.w3.org/2000/svg">
<path fill-rule="evenodd" clip-rule="evenodd" d="M15.3844 5.34539H2.0972L6.39222 1.05036C6.6327 0.809882 6.6327 0.420843 6.39222 0.180361C6.15174 -0.0601204 5.76188 -0.0601204 5.5214 0.180361L0.175805 5.52595C0.17006 5.53088 0.168418 5.53826 0.163494 5.54401C0.114248 5.59736 0.0707481 5.65563 0.0420216 5.7254C0.0420216 5.72622 0.0420216 5.72704 0.0412009 5.72868C0.0403801 5.73114 0.0403801 5.73442 0.0387386 5.73689C0.0132951 5.80255 0.0026253 5.86985 0.000163027 5.93797C-0.00065773 5.95931 0.00180454 5.97901 0.00344605 6.00035C0.00672908 6.05288 0.0157574 6.10294 0.0329933 6.15301C0.0395594 6.17353 0.0453047 6.19323 0.0535122 6.21375C0.0838802 6.27941 0.121635 6.34261 0.175805 6.39595L5.5214 11.7415C5.64205 11.8622 5.79881 11.9221 5.95722 11.9221C6.1148 11.9221 6.27157 11.8622 6.39222 11.7415C6.6327 11.5011 6.6327 11.112 6.39222 10.8715L2.0972 6.57652H15.3844C15.7242 6.57652 16 6.30075 16 5.96095C16 5.62116 15.7242 5.34539 15.3844 5.34539Z" fill="#2E2C35"/>
</svg>
