<svg width="56" height="56" viewBox="0 0 56 56" fill="none" xmlns="http://www.w3.org/2000/svg">
<path d="M4 28C4 14.7452 14.7452 4 28 4C41.2548 4 52 14.7452 52 28C52 41.2548 41.2548 52 28 52C14.7452 52 4 41.2548 4 28Z" fill="#DED6FF"/>
<circle cx="27" cy="27" r="6" stroke="#5A33FF"/>
<path d="M27 24C26.606 24 26.2159 24.0776 25.8519 24.2284C25.488 24.3791 25.1573 24.6001 24.8787 24.8787C24.6001 25.1573 24.3791 25.488 24.2284 25.852C24.0776 26.2159 24 26.606 24 27" stroke="#5A33FF" stroke-linecap="round"/>
<path d="M36 36L33 33" stroke="#5A33FF" stroke-linecap="round"/>
<path d="M28 48C16.9543 48 8 39.0457 8 28H0C0 43.464 12.536 56 28 56V48ZM48 28C48 39.0457 39.0457 48 28 48V56C43.464 56 56 43.464 56 28H48ZM28 8C39.0457 8 48 16.9543 48 28H56C56 12.536 43.464 0 28 0V8ZM28 0C12.536 0 0 12.536 0 28H8C8 16.9543 16.9543 8 28 8V0Z" fill="#F6F9FF"/>
</svg>
